<?xml version="1.0" encoding="UTF-8" standalone="no"?>
<!DOCTYPE svg PUBLIC "-//W3C//DTD SVG 1.1//EN" "http://www.w3.org/Graphics/SVG/1.1/DTD/svg11.dtd">
<svg width="100%" height="100%" viewBox="0 0 64 64" version="1.1" xmlns="http://www.w3.org/2000/svg" xmlns:xlink="http://www.w3.org/1999/xlink" xml:space="preserve" xmlns:serif="http://www.serif.com/" style="fill-rule:evenodd;clip-rule:evenodd;stroke-linejoin:round;stroke-miterlimit:1.41421;">
    <g transform="matrix(0.586938,0,0,0.586938,-377.378,-239.49)">
        <path d="M734.631,408.032C744.224,408.033 752,415.809 752,425.401C752,445.771 752,479.334 752,499.704C752,509.296 744.224,517.073 734.631,517.073C714.262,517.073 680.698,517.073 660.329,517.073C650.736,517.073 642.96,509.296 642.96,499.704C642.96,479.334 642.96,445.771 642.96,425.401C642.96,415.809 650.736,408.033 660.329,408.032L734.631,408.032ZM718.407,466.96C727.525,466.96 734.927,474.362 734.927,483.48C734.927,492.598 727.525,500 718.407,500C709.289,500 701.887,492.598 701.887,483.48C701.887,474.362 709.289,466.96 718.407,466.96ZM692.52,483.48C692.52,492.598 685.118,500 676,500C666.882,500 659.48,492.598 659.48,483.48C659.48,474.362 666.882,466.96 676,466.96C685.118,466.96 692.52,474.362 692.52,483.48ZM734.927,441.073C734.927,450.191 727.525,457.593 718.407,457.593C709.289,457.593 701.887,450.191 701.887,441.073C701.887,431.955 709.289,424.553 718.407,424.553C727.525,424.553 734.927,431.955 734.927,441.073ZM676,424.553C685.118,424.553 692.52,431.955 692.52,441.073C692.52,450.191 685.118,457.593 676,457.593C666.882,457.593 659.48,450.191 659.48,441.073C659.48,431.955 666.882,424.553 676,424.553Z" style="fill:rgb(0,95,233);"/>
    </g>
</svg>
